<mxfile host="app.diagrams.net" modified="2022-10-22T14:24:08.834Z" agent="5.0 (Windows NT 10.0; Win64; x64) AppleWebKit/537.36 (KHTML, like Gecko) Chrome/106.0.0.0 Safari/537.36" etag="mhiHTALLSV_PIeDWfkns" version="20.5.0" type="github">
  <diagram id="vkRfV3sPaJB6Ty87iKga" name="Página-1">
    <mxGraphModel dx="2105" dy="547" grid="1" gridSize="10" guides="1" tooltips="1" connect="1" arrows="1" fold="1" page="1" pageScale="1" pageWidth="827" pageHeight="1169" math="0" shadow="0">
      <root>
        <mxCell id="0" />
        <mxCell id="1" parent="0" />
        <UserObject label="1" lucidchartObjectId="8grS7iBBDLPt" id="uS4SArBkVmVLtI8ByykN-2">
          <mxCell style="html=1;overflow=block;blockSpacing=1;whiteSpace=wrap;fontSize=13;fontColor=#333333;align=center;spacing=0;fillColor=#ffffff;strokeWidth=1.5;strokeColor=none;" parent="1" vertex="1">
            <mxGeometry x="479" y="350" width="22" height="21" as="geometry" />
          </mxCell>
        </UserObject>
        <mxCell id="uS4SArBkVmVLtI8ByykN-3" value="Pessoa" style="html=1;overflow=block;blockSpacing=1;swimlane;childLayout=stackLayout;horizontal=1;horizontalStack=0;resizeParent=1;resizeParentMax=0;resizeLast=0;collapsible=0;marginBottom=0;swimlaneFillColor=#ffffff;startSize=28;whiteSpace=wrap;fontSize=18.5;fontColor=#333333;fontStyle=1;align=left;spacing=0;strokeColor=#333333;strokeOpacity=100;strokeWidth=1.5;" parent="1" vertex="1">
          <mxGeometry x="1131" y="142" width="240" height="265.75" as="geometry" />
        </mxCell>
        <mxCell id="uS4SArBkVmVLtI8ByykN-4" value="- nome: string&#xa;- documento: string&#xa;- email: string&#xa;- endereco: string&#xa;- dataNascimento: Data&#xa;- telefone: string" style="part=1;html=1;resizeHeight=0;strokeColor=none;fillColor=none;align=left;verticalAlign=middle;spacingLeft=4;spacingRight=4;overflow=hidden;rotatable=0;points=[[0,0.5],[1,0.5]];portConstraint=eastwest;swimlaneFillColor=#ffffff;strokeOpacity=100;whiteSpace=wrap;fontSize=16.8;fontColor=#333333;" parent="uS4SArBkVmVLtI8ByykN-3" vertex="1">
          <mxGeometry y="28" width="240" height="112" as="geometry" />
        </mxCell>
        <mxCell id="uS4SArBkVmVLtI8ByykN-5" value="" style="line;strokeWidth=1;fillColor=none;align=left;verticalAlign=middle;spacingTop=-1;spacingLeft=3;spacingRight=3;rotatable=0;labelPosition=right;points=[];portConstraint=eastwest;" parent="uS4SArBkVmVLtI8ByykN-3" vertex="1">
          <mxGeometry y="140" width="240" height="8" as="geometry" />
        </mxCell>
        <mxCell id="uS4SArBkVmVLtI8ByykN-6" value="+ verificaCFP( ): bool&lt;br&gt;+ verificaCNPJ( ): bool&lt;br&gt;+ Pessoa( ): Pessoa" style="part=1;html=1;resizeHeight=0;strokeColor=none;fillColor=none;align=left;verticalAlign=middle;spacingLeft=4;spacingRight=4;overflow=hidden;rotatable=0;points=[[0,0.5],[1,0.5]];portConstraint=eastwest;swimlaneFillColor=#ffffff;strokeOpacity=100;whiteSpace=wrap;fontSize=16.8;fontColor=#333333;" parent="uS4SArBkVmVLtI8ByykN-3" vertex="1">
          <mxGeometry y="148" width="240" height="117.75" as="geometry" />
        </mxCell>
        <mxCell id="uS4SArBkVmVLtI8ByykN-7" value="Funcionário" style="html=1;overflow=block;blockSpacing=1;swimlane;childLayout=stackLayout;horizontal=1;horizontalStack=0;resizeParent=1;resizeParentMax=0;resizeLast=0;collapsible=0;marginBottom=0;swimlaneFillColor=#ffffff;startSize=28;whiteSpace=wrap;fontSize=16.8;fontColor=#333333;fontStyle=1;align=left;spacing=0;strokeColor=#333333;strokeOpacity=100;strokeWidth=1.5;" parent="1" vertex="1">
          <mxGeometry x="921" y="475" width="255" height="336.75" as="geometry" />
        </mxCell>
        <mxCell id="uS4SArBkVmVLtI8ByykN-8" value="- matricula: int&#xa;- admissao: Data&#xa;- demissao: Data&#xa;- departamento: Departamento&#xa;- cargo: Cargo&#xa;- salario: map&amp;lt;double, Data&amp;gt;&#xa;- status: string&#xa;- dissídio: float" style="part=1;html=1;resizeHeight=0;strokeColor=none;fillColor=none;align=left;verticalAlign=middle;spacingLeft=4;spacingRight=4;overflow=hidden;rotatable=0;points=[[0,0.5],[1,0.5]];portConstraint=eastwest;swimlaneFillColor=#ffffff;strokeOpacity=100;whiteSpace=wrap;fontSize=15.2;fontColor=#333333;" parent="uS4SArBkVmVLtI8ByykN-7" vertex="1">
          <mxGeometry y="28" width="255" height="148" as="geometry" />
        </mxCell>
        <mxCell id="uS4SArBkVmVLtI8ByykN-9" value="" style="line;strokeWidth=1;fillColor=none;align=left;verticalAlign=middle;spacingTop=-1;spacingLeft=3;spacingRight=3;rotatable=0;labelPosition=right;points=[];portConstraint=eastwest;" parent="uS4SArBkVmVLtI8ByykN-7" vertex="1">
          <mxGeometry y="176" width="255" height="8" as="geometry" />
        </mxCell>
        <mxCell id="uS4SArBkVmVLtI8ByykN-10" value="+ cadastraFuncionario( ): void&#xa;+ demiteFuncionario( ): void&#xa;+ alteraSalario( ): void&#xa;+ statusFuncionario( ): string&#xa;+ setFuncionarios( ): void&#xa;" style="part=1;html=1;resizeHeight=0;strokeColor=none;fillColor=none;align=left;verticalAlign=middle;spacingLeft=4;spacingRight=4;overflow=hidden;rotatable=0;points=[[0,0.5],[1,0.5]];portConstraint=eastwest;swimlaneFillColor=#ffffff;strokeOpacity=100;whiteSpace=wrap;fontSize=15.2;fontColor=#333333;" parent="uS4SArBkVmVLtI8ByykN-7" vertex="1">
          <mxGeometry y="184" width="255" height="152.75" as="geometry" />
        </mxCell>
        <mxCell id="uS4SArBkVmVLtI8ByykN-11" value="Cliente" style="html=1;overflow=block;blockSpacing=1;swimlane;childLayout=stackLayout;horizontal=1;horizontalStack=0;resizeParent=1;resizeParentMax=0;resizeLast=0;collapsible=0;marginBottom=0;swimlaneFillColor=#ffffff;startSize=25;whiteSpace=wrap;fontSize=16.8;fontColor=#333333;fontStyle=1;align=center;spacing=0;strokeColor=#333333;strokeOpacity=100;fillOpacity=100;fillColor=#ffffff;strokeWidth=1.5;" parent="1" vertex="1">
          <mxGeometry x="1326" y="475" width="270" height="162.25" as="geometry" />
        </mxCell>
        <mxCell id="uS4SArBkVmVLtI8ByykN-12" value="- tipo: bool" style="part=1;html=1;resizeHeight=0;strokeColor=none;fillColor=none;align=left;verticalAlign=middle;spacingLeft=4;spacingRight=4;overflow=hidden;rotatable=0;points=[[0,0.5],[1,0.5]];portConstraint=eastwest;swimlaneFillColor=#ffffff;strokeOpacity=100;fillOpacity=100;whiteSpace=wrap;fontSize=15.2;fontColor=#333333;" parent="uS4SArBkVmVLtI8ByykN-11" vertex="1">
          <mxGeometry y="25" width="270" height="59" as="geometry" />
        </mxCell>
        <mxCell id="uS4SArBkVmVLtI8ByykN-13" value="" style="line;strokeWidth=1;fillColor=none;align=left;verticalAlign=middle;spacingTop=-1;spacingLeft=3;spacingRight=3;rotatable=0;labelPosition=right;points=[];portConstraint=eastwest;" parent="uS4SArBkVmVLtI8ByykN-11" vertex="1">
          <mxGeometry y="84" width="270" height="8" as="geometry" />
        </mxCell>
        <mxCell id="uS4SArBkVmVLtI8ByykN-14" value="+ cadastraCliente( ): void&#xa;" style="part=1;html=1;resizeHeight=0;strokeColor=none;fillColor=none;align=left;verticalAlign=middle;spacingLeft=4;spacingRight=4;overflow=hidden;rotatable=0;points=[[0,0.5],[1,0.5]];portConstraint=eastwest;swimlaneFillColor=#ffffff;strokeOpacity=100;fillOpacity=100;whiteSpace=wrap;fontSize=15.2;fontColor=#333333;" parent="uS4SArBkVmVLtI8ByykN-11" vertex="1">
          <mxGeometry y="92" width="270" height="70.25" as="geometry" />
        </mxCell>
        <mxCell id="uS4SArBkVmVLtI8ByykN-15" value="Data" style="html=1;overflow=block;blockSpacing=1;swimlane;childLayout=stackLayout;horizontal=1;horizontalStack=0;resizeParent=1;resizeParentMax=0;resizeLast=0;collapsible=0;marginBottom=0;swimlaneFillColor=#ffffff;startSize=25;whiteSpace=wrap;fontSize=16.8;fontColor=#333333;fontStyle=1;align=center;spacing=0;strokeColor=#333333;strokeOpacity=100;strokeWidth=1.5;" parent="1" vertex="1">
          <mxGeometry x="501" y="120" width="270" height="763" as="geometry" />
        </mxCell>
        <mxCell id="uS4SArBkVmVLtI8ByykN-16" value="&lt;div style=&quot;display: flex; justify-content: flex-start; text-align: left; align-items: baseline; font-size: 0; line-height: 1.25;margin-top: -2px;&quot;&gt;&lt;span&gt;&lt;span style=&quot;font-size:15.2px;color:#333333;&quot;&gt;- ano: int&#xa;&lt;/span&gt;&lt;/span&gt;&lt;/div&gt;&lt;div style=&quot;display: flex; justify-content: flex-start; text-align: left; align-items: baseline; font-size: 0; line-height: 1.25;margin-top: -2px;&quot;&gt;&lt;span&gt;&lt;span style=&quot;font-size:15.2px;color:#333333;&quot;&gt;- mes: int&#xa;&lt;/span&gt;&lt;/span&gt;&lt;/div&gt;&lt;div style=&quot;display: flex; justify-content: flex-start; text-align: left; align-items: baseline; font-size: 0; line-height: 1.25;margin-top: -2px;&quot;&gt;&lt;span&gt;&lt;span style=&quot;font-size:15.2px;color:#333333;&quot;&gt;- dia: int&#xa;&lt;/span&gt;&lt;/span&gt;&lt;/div&gt;&lt;div style=&quot;display: flex; justify-content: flex-start; text-align: left; align-items: baseline; font-size: 0; line-height: 1.25;margin-top: -2px;&quot;&gt;&lt;span&gt;&lt;span style=&quot;font-size:15.2px;color:#333333;&quot;&gt;- hora: int&#xa;&lt;/span&gt;&lt;/span&gt;&lt;/div&gt;&lt;div style=&quot;display: flex; justify-content: flex-start; text-align: left; align-items: baseline; font-size: 0; line-height: 1.25;margin-top: -2px;&quot;&gt;&lt;span&gt;&lt;span style=&quot;font-size:15.2px;color:#333333;&quot;&gt;- minutos: int&#xa;&lt;/span&gt;&lt;/span&gt;&lt;/div&gt;&lt;div style=&quot;display: flex; justify-content: flex-start; text-align: left; align-items: baseline; font-size: 0; line-height: 1.25;margin-top: -2px;&quot;&gt;&lt;span&gt;&lt;span style=&quot;font-size:15.2px;color:#333333;&quot;&gt;- segundos: int&#xa;&lt;/span&gt;&lt;/span&gt;&lt;/div&gt;&lt;div style=&quot;display: flex; justify-content: flex-start; text-align: left; align-items: baseline; font-size: 0; line-height: 1.25;margin-top: -2px;&quot;&gt;&lt;span&gt;&lt;span style=&quot;font-size:15.2px;color:#333333;&quot;&gt;- ticks: long&#xa;&lt;/span&gt;&lt;/span&gt;&lt;/div&gt;&lt;div style=&quot;display: flex; justify-content: flex-start; text-align: left; align-items: baseline; font-size: 0; line-height: 1.25;margin-top: -2px;&quot;&gt;&lt;span&gt;&lt;span style=&quot;font-size:15.2px;color:#333333;&quot;&gt;- formatoData: Formato&#xa;&lt;/span&gt;&lt;/span&gt;&lt;/div&gt;&lt;div style=&quot;display: flex; justify-content: flex-start; text-align: left; align-items: baseline; font-size: 0; line-height: 1.25;margin-top: -2px;&quot;&gt;&lt;span&gt;&lt;span style=&quot;font-size:15.2px;color:#333333;&quot;&gt;- ticksToDate( ): void&#xa;&lt;/span&gt;&lt;/span&gt;&lt;/div&gt;&lt;div style=&quot;display: flex; justify-content: flex-start; text-align: left; align-items: baseline; font-size: 0; line-height: 1.25;margin-top: -2px;&quot;&gt;&lt;span&gt;&lt;span style=&quot;font-size:15.2px;color:#333333;&quot;&gt;- dateToTicks( ): void&lt;/span&gt;&lt;/span&gt;&lt;/div&gt;" style="part=1;html=1;resizeHeight=0;strokeColor=none;fillColor=none;verticalAlign=middle;spacingLeft=4;spacingRight=4;overflow=hidden;rotatable=0;points=[[0,0.5],[1,0.5]];portConstraint=eastwest;swimlaneFillColor=#ffffff;strokeOpacity=100;whiteSpace=wrap;fontSize=15.2;fontColor=#333333;align=left;" parent="uS4SArBkVmVLtI8ByykN-15" vertex="1">
          <mxGeometry y="25" width="270" height="377" as="geometry" />
        </mxCell>
        <mxCell id="uS4SArBkVmVLtI8ByykN-17" value="" style="line;strokeWidth=1;fillColor=none;align=left;verticalAlign=middle;spacingTop=-1;spacingLeft=3;spacingRight=3;rotatable=0;labelPosition=right;points=[];portConstraint=eastwest;" parent="uS4SArBkVmVLtI8ByykN-15" vertex="1">
          <mxGeometry y="402" width="270" height="8" as="geometry" />
        </mxCell>
        <mxCell id="uS4SArBkVmVLtI8ByykN-18" value="&lt;div style=&quot;display: flex; justify-content: flex-start; text-align: left; align-items: baseline; font-size: 0; line-height: 1.25;margin-top: -2px;&quot;&gt;&lt;span&gt;&lt;span style=&quot;font-size:15.2px;color:#333333;&quot;&gt;+ Data( )&#xa;&lt;/span&gt;&lt;/span&gt;&lt;/div&gt;&lt;div style=&quot;display: flex; justify-content: flex-start; text-align: left; align-items: baseline; font-size: 0; line-height: 1.25;margin-top: -2px;&quot;&gt;&lt;span&gt;&lt;span style=&quot;font-size:15.2px;color:#333333;&quot;&gt;+ ~Data( ): virtual&#xa;&lt;/span&gt;&lt;/span&gt;&lt;/div&gt;&lt;div style=&quot;display: flex; justify-content: flex-start; text-align: left; align-items: baseline; font-size: 0; line-height: 1.25;margin-top: -2px;&quot;&gt;&lt;span&gt;&lt;span style=&quot;font-size:15.2px;color:#333333;&quot;&gt;+ operator==( ): bool&#xa;&lt;/span&gt;&lt;/span&gt;&lt;/div&gt;&lt;div style=&quot;display: flex; justify-content: flex-start; text-align: left; align-items: baseline; font-size: 0; line-height: 1.25;margin-top: -2px;&quot;&gt;&lt;span&gt;&lt;span style=&quot;font-size:15.2px;color:#333333;&quot;&gt;+ operator&amp;lt;( ): bool&#xa;&lt;/span&gt;&lt;/span&gt;&lt;/div&gt;&lt;div style=&quot;display: flex; justify-content: flex-start; text-align: left; align-items: baseline; font-size: 0; line-height: 1.25;margin-top: -2px;&quot;&gt;&lt;span&gt;&lt;span style=&quot;font-size:15.2px;color:#333333;&quot;&gt;+ operator&amp;gt;( ): bool&#xa;&lt;/span&gt;&lt;/span&gt;&lt;/div&gt;&lt;div style=&quot;display: flex; justify-content: flex-start; text-align: left; align-items: baseline; font-size: 0; line-height: 1.25;margin-top: -2px;&quot;&gt;&lt;span&gt;&lt;span style=&quot;font-size:15.2px;color:#333333;&quot;&gt;+ operator-( ): Data&#xa;&lt;/span&gt;&lt;/span&gt;&lt;/div&gt;&lt;div style=&quot;display: flex; justify-content: flex-start; text-align: left; align-items: baseline; font-size: 0; line-height: 1.25;margin-top: -2px;&quot;&gt;&lt;span&gt;&lt;span style=&quot;font-size:15.7px;color:#282c33;&quot;&gt;+ getAno( ): int&#xa;&lt;/span&gt;&lt;/span&gt;&lt;/div&gt;&lt;div style=&quot;display: flex; justify-content: flex-start; text-align: left; align-items: baseline; font-size: 0; line-height: 1.25;margin-top: -2px;&quot;&gt;&lt;span&gt;&lt;span style=&quot;font-size:15.7px;color:#282c33;&quot;&gt;+ getMes( ): int&#xa;&lt;/span&gt;&lt;/span&gt;&lt;/div&gt;&lt;div style=&quot;display: flex; justify-content: flex-start; text-align: left; align-items: baseline; font-size: 0; line-height: 1.25;margin-top: -2px;&quot;&gt;&lt;span&gt;&lt;span style=&quot;font-size:15.7px;color:#282c33;&quot;&gt;+ getDia( ): int&#xa;&lt;/span&gt;&lt;/span&gt;&lt;/div&gt;&lt;div style=&quot;display: flex; justify-content: flex-start; text-align: left; align-items: baseline; font-size: 0; line-height: 1.25;margin-top: -2px;&quot;&gt;&lt;span&gt;&lt;span style=&quot;font-size:15.7px;color:#282c33;&quot;&gt;+ getHora( ): int&#xa;&lt;/span&gt;&lt;/span&gt;&lt;/div&gt;&lt;div style=&quot;display: flex; justify-content: flex-start; text-align: left; align-items: baseline; font-size: 0; line-height: 1.25;margin-top: -2px;&quot;&gt;&lt;span&gt;&lt;span style=&quot;font-size:15.7px;color:#282c33;&quot;&gt;+ getMin( ): int&#xa;&lt;/span&gt;&lt;/span&gt;&lt;/div&gt;&lt;div style=&quot;display: flex; justify-content: flex-start; text-align: left; align-items: baseline; font-size: 0; line-height: 1.25;margin-top: -2px;&quot;&gt;&lt;span&gt;&lt;span style=&quot;font-size:15.7px;color:#282c33;&quot;&gt;+ getSeg( ): int&#xa;&lt;/span&gt;&lt;/span&gt;&lt;/div&gt;&lt;div style=&quot;display: flex; justify-content: flex-start; text-align: left; align-items: baseline; font-size: 0; line-height: 1.25;margin-top: -2px;&quot;&gt;&lt;span&gt;&lt;span style=&quot;font-size:15.7px;color:#282c33;&quot;&gt;+ getTicks( ): long&#xa;&lt;/span&gt;&lt;/span&gt;&lt;/div&gt;&lt;div style=&quot;display: flex; justify-content: flex-start; text-align: left; align-items: baseline; font-size: 0; line-height: 1.25;margin-top: -2px;&quot;&gt;&lt;span&gt;&lt;span style=&quot;font-size:15.7px;color:#282c33;&quot;&gt;+ getFormato( ): string&#xa;&lt;/span&gt;&lt;/span&gt;&lt;/div&gt;&lt;div style=&quot;display: flex; justify-content: flex-start; text-align: left; align-items: baseline; font-size: 0; line-height: 1.25;margin-top: -2px;&quot;&gt;&lt;span&gt;&lt;span style=&quot;font-size:15.7px;color:#282c33;&quot;&gt;+ setAno( ): void&#xa;&lt;/span&gt;&lt;/span&gt;&lt;/div&gt;&lt;div style=&quot;display: flex; justify-content: flex-start; text-align: left; align-items: baseline; font-size: 0; line-height: 1.25;margin-top: -2px;&quot;&gt;&lt;span&gt;&lt;span style=&quot;font-size:15.7px;color:#282c33;&quot;&gt;+ setMes( ): void&#xa;&lt;/span&gt;&lt;/span&gt;&lt;/div&gt;&lt;div style=&quot;display: flex; justify-content: flex-start; text-align: left; align-items: baseline; font-size: 0; line-height: 1.25;margin-top: -2px;&quot;&gt;&lt;span&gt;&lt;span style=&quot;font-size:15.7px;color:#282c33;&quot;&gt;+ setDia( ): void&#xa;&lt;/span&gt;&lt;/span&gt;&lt;/div&gt;&lt;div style=&quot;display: flex; justify-content: flex-start; text-align: left; align-items: baseline; font-size: 0; line-height: 1.25;margin-top: -2px;&quot;&gt;&lt;span&gt;&lt;span style=&quot;font-size:15.7px;color:#282c33;&quot;&gt;+ setHora( ): void&#xa;&lt;/span&gt;&lt;/span&gt;&lt;/div&gt;&lt;div style=&quot;display: flex; justify-content: flex-start; text-align: left; align-items: baseline; font-size: 0; line-height: 1.25;margin-top: -2px;&quot;&gt;&lt;span&gt;&lt;span style=&quot;font-size:15.7px;color:#282c33;&quot;&gt;+ setMin( ): void&#xa;&lt;/span&gt;&lt;/span&gt;&lt;/div&gt;&lt;div style=&quot;display: flex; justify-content: flex-start; text-align: left; align-items: baseline; font-size: 0; line-height: 1.25;margin-top: -2px;&quot;&gt;&lt;span&gt;&lt;span style=&quot;font-size:15.7px;color:#282c33;&quot;&gt;+ setSeg( ): void&#xa;&lt;/span&gt;&lt;/span&gt;&lt;/div&gt;&lt;div style=&quot;display: flex; justify-content: flex-start; text-align: left; align-items: baseline; font-size: 0; line-height: 1.25;margin-top: -2px;&quot;&gt;&lt;span&gt;&lt;span style=&quot;font-size:15.7px;color:#282c33;&quot;&gt;+ setTicks( ): void&#xa;&lt;/span&gt;&lt;/span&gt;&lt;/div&gt;&lt;div style=&quot;display: flex; justify-content: flex-start; text-align: left; align-items: baseline; font-size: 0; line-height: 1.25;margin-top: -2px;&quot;&gt;&lt;span&gt;&lt;span style=&quot;font-size:15.7px;color:#282c33;&quot;&gt;+ setFormato( ): void&#xa;&lt;/span&gt;&lt;/span&gt;&lt;/div&gt;&lt;div style=&quot;display: flex; justify-content: flex-start; text-align: left; align-items: baseline; font-size: 0; line-height: 1.25;margin-top: -2px;&quot;&gt;&lt;span&gt;&lt;span style=&quot;font-size:15.7px;color:#282c33;&quot;&gt;+ bool validaData( ): bool    &#xa;&lt;/span&gt;&lt;/span&gt;&lt;/div&gt;&lt;div style=&quot;display: flex; justify-content: flex-start; text-align: left; align-items: baseline; font-size: 0; line-height: 1.25;margin-top: -2px;&quot;&gt;&lt;span&gt;&lt;span style=&quot;font-size:15.7px;color:#282c33;&quot;&gt;+ dateNow( ): Data   &#xa;&lt;/span&gt;&lt;/span&gt;&lt;/div&gt;&lt;div style=&quot;display: flex; justify-content: flex-start; text-align: left; align-items: baseline; font-size: 0; line-height: 1.25;margin-top: -2px;&quot;&gt;&lt;span&gt;&lt;span style=&quot;font-size:15.7px;color:#282c33;&quot;&gt;+ void printData( ): void      &#xa;&lt;/span&gt;&lt;/span&gt;&lt;/div&gt;&lt;div style=&quot;display: flex; justify-content: flex-start; text-align: left; align-items: baseline; font-size: 0; line-height: 1.25;margin-top: -2px;&quot;&gt;&lt;span&gt;&lt;span style=&quot;font-size:15.7px;color:#282c33;&quot;&gt;+ string getData( ): string  &#xa;&lt;/span&gt;&lt;/span&gt;&lt;/div&gt;&lt;div style=&quot;display: flex; justify-content: flex-start; text-align: left; align-items: baseline; font-size: 0; line-height: 1.25;margin-top: -2px;&quot;&gt;&lt;span&gt;&lt;span style=&quot;font-size:15.7px;color:#282c33;&quot;&gt;+ int diffData( ): int &lt;/span&gt;&lt;span style=&quot;font-size:19px;color:#282c33;&quot;&gt;  &lt;/span&gt;&lt;/span&gt;&lt;/div&gt;" style="part=1;resizeHeight=0;strokeColor=none;fillColor=none;align=left;verticalAlign=middle;spacingLeft=4;spacingRight=4;rotatable=0;points=[[0,0.5],[1,0.5]];portConstraint=eastwest;swimlaneFillColor=#ffffff;strokeOpacity=100;whiteSpace=wrap;overflow=block;blockSpacing=1;html=1;fontSize=13;" parent="uS4SArBkVmVLtI8ByykN-15" vertex="1">
          <mxGeometry y="410" width="270" height="353" as="geometry" />
        </mxCell>
        <UserObject label="" lucidchartObjectId="xvnSRWTbx0TX" id="uS4SArBkVmVLtI8ByykN-19">
          <mxCell style="html=1;jettySize=18;whiteSpace=wrap;fontSize=13;strokeColor=#333333;strokeOpacity=100;strokeWidth=2.3;rounded=1;arcSize=24;edgeStyle=orthogonalEdgeStyle;startArrow=none;endArrow=block;endFill=0;exitX=0.5;exitY=-0.005;exitPerimeter=0;entryX=0.573;entryY=1.003;entryPerimeter=0;" parent="1" source="uS4SArBkVmVLtI8ByykN-11" target="uS4SArBkVmVLtI8ByykN-3" edge="1">
            <mxGeometry width="100" height="100" relative="1" as="geometry">
              <Array as="points" />
            </mxGeometry>
          </mxCell>
        </UserObject>
        <UserObject label="" lucidchartObjectId="VvnSViH1~Eex" id="uS4SArBkVmVLtI8ByykN-20">
          <mxCell style="html=1;jettySize=18;whiteSpace=wrap;fontSize=13;strokeColor=#333333;strokeOpacity=100;strokeWidth=2.3;rounded=1;arcSize=24;edgeStyle=orthogonalEdgeStyle;startArrow=none;endArrow=block;endFill=0;exitX=0.5;exitY=-0.002;exitPerimeter=0;entryX=0.435;entryY=1.003;entryPerimeter=0;" parent="1" source="uS4SArBkVmVLtI8ByykN-7" target="uS4SArBkVmVLtI8ByykN-3" edge="1">
            <mxGeometry width="100" height="100" relative="1" as="geometry">
              <Array as="points" />
            </mxGeometry>
          </mxCell>
        </UserObject>
        <mxCell id="uS4SArBkVmVLtI8ByykN-21" value="Formato" style="html=1;overflow=block;blockSpacing=1;swimlane;childLayout=stackLayout;horizontal=1;horizontalStack=0;resizeParent=1;resizeParentMax=0;resizeLast=0;collapsible=0;marginBottom=0;swimlaneFillColor=#ffffff;startSize=25;whiteSpace=wrap;fontSize=16.8;fontColor=#333333;fontStyle=1;align=center;spacing=0;strokeColor=#333333;strokeOpacity=100;fillOpacity=100;fillColor=#ffffff;strokeWidth=1.5;" parent="1" vertex="1">
          <mxGeometry x="81" y="264" width="270" height="252.25" as="geometry" />
        </mxCell>
        <mxCell id="uS4SArBkVmVLtI8ByykN-22" value="- nome: string&#xa;- separadorData: string&#xa;- separadorHorario: string" style="part=1;html=1;resizeHeight=0;strokeColor=none;fillColor=none;align=left;verticalAlign=middle;spacingLeft=4;spacingRight=4;overflow=hidden;rotatable=0;points=[[0,0.5],[1,0.5]];portConstraint=eastwest;swimlaneFillColor=#ffffff;strokeOpacity=100;fillOpacity=100;whiteSpace=wrap;fontSize=15.2;fontColor=#333333;" parent="uS4SArBkVmVLtI8ByykN-21" vertex="1">
          <mxGeometry y="25" width="270" height="105" as="geometry" />
        </mxCell>
        <mxCell id="uS4SArBkVmVLtI8ByykN-23" value="" style="line;strokeWidth=1;fillColor=none;align=left;verticalAlign=middle;spacingTop=-1;spacingLeft=3;spacingRight=3;rotatable=0;labelPosition=right;points=[];portConstraint=eastwest;" parent="uS4SArBkVmVLtI8ByykN-21" vertex="1">
          <mxGeometry y="130" width="270" height="8" as="geometry" />
        </mxCell>
        <mxCell id="uS4SArBkVmVLtI8ByykN-24" value="+ Formato( )&#xa;+ virtual ~Formato( )&#xa;+ getNome( ): string&#xa;+ getSeparadorData( ): string&#xa;+ getSeparadorHorario( ): string" style="part=1;html=1;resizeHeight=0;strokeColor=none;fillColor=none;align=left;verticalAlign=middle;spacingLeft=4;spacingRight=4;overflow=hidden;rotatable=0;points=[[0,0.5],[1,0.5]];portConstraint=eastwest;swimlaneFillColor=#ffffff;strokeOpacity=100;fillOpacity=100;whiteSpace=wrap;fontSize=15.2;fontColor=#333333;" parent="uS4SArBkVmVLtI8ByykN-21" vertex="1">
          <mxGeometry y="138" width="270" height="114.25" as="geometry" />
        </mxCell>
        <UserObject label="" lucidchartObjectId="HZqS9BVGeuSc" id="uS4SArBkVmVLtI8ByykN-25">
          <mxCell style="html=1;jettySize=18;whiteSpace=wrap;fontSize=13;strokeColor=#282c33;strokeOpacity=100;strokeWidth=2.3;rounded=1;arcSize=24;edgeStyle=orthogonalEdgeStyle;startArrow=none;endArrow=none;exitX=-0.003;exitY=0.461;exitPerimeter=0;entryX=1.003;entryY=0.176;entryPerimeter=0;" parent="1" source="uS4SArBkVmVLtI8ByykN-3" target="uS4SArBkVmVLtI8ByykN-15" edge="1">
            <mxGeometry width="100" height="100" relative="1" as="geometry">
              <Array as="points" />
            </mxGeometry>
          </mxCell>
        </UserObject>
        <UserObject label="" lucidchartObjectId="VZqS2u1qNekI" id="uS4SArBkVmVLtI8ByykN-26">
          <mxCell style="html=1;jettySize=18;whiteSpace=wrap;fontSize=13;strokeColor=#282c33;strokeOpacity=100;strokeWidth=2.3;rounded=1;arcSize=24;edgeStyle=orthogonalEdgeStyle;startArrow=none;endArrow=none;exitX=1.003;exitY=0.5;exitPerimeter=0;entryX=-0.003;entryY=0.335;entryPerimeter=0;" parent="1" source="uS4SArBkVmVLtI8ByykN-21" target="uS4SArBkVmVLtI8ByykN-15" edge="1">
            <mxGeometry width="100" height="100" relative="1" as="geometry">
              <Array as="points" />
            </mxGeometry>
          </mxCell>
        </UserObject>
        <UserObject label="" lucidchartObjectId="d0qS6z2qbSeq" id="uS4SArBkVmVLtI8ByykN-27">
          <mxCell style="html=1;jettySize=18;whiteSpace=wrap;fontSize=13;strokeColor=#333333;strokeOpacity=100;strokeWidth=2.3;rounded=1;arcSize=24;edgeStyle=orthogonalEdgeStyle;startArrow=none;endArrow=none;exitX=-0.003;exitY=0.471;exitPerimeter=0;entryX=1.003;entryY=0.651;entryPerimeter=0;" parent="1" source="uS4SArBkVmVLtI8ByykN-7" target="uS4SArBkVmVLtI8ByykN-15" edge="1">
            <mxGeometry width="100" height="100" relative="1" as="geometry">
              <Array as="points" />
            </mxGeometry>
          </mxCell>
        </UserObject>
        <UserObject label="2" lucidchartObjectId="rhrSo2Qi_Fyk" id="uS4SArBkVmVLtI8ByykN-28">
          <mxCell style="html=1;overflow=block;blockSpacing=1;whiteSpace=wrap;fontSize=13;fontColor=#333333;align=center;spacing=0;fillColor=#ffffff;strokeWidth=1.5;strokeColor=none;" parent="1" vertex="1">
            <mxGeometry x="351" y="350" width="22" height="21" as="geometry" />
          </mxCell>
        </UserObject>
        <UserObject label="1" lucidchartObjectId="6hrSMT7oo91J" id="uS4SArBkVmVLtI8ByykN-29">
          <mxCell style="html=1;overflow=block;blockSpacing=1;whiteSpace=wrap;fontSize=13;fontColor=#333333;align=center;spacing=0;fillColor=#ffffff;strokeWidth=1.5;strokeColor=none;" parent="1" vertex="1">
            <mxGeometry x="771" y="225" width="22" height="21" as="geometry" />
          </mxCell>
        </UserObject>
        <UserObject label="1" lucidchartObjectId="firSxkdLpSeg" id="uS4SArBkVmVLtI8ByykN-30">
          <mxCell style="html=1;overflow=block;blockSpacing=1;whiteSpace=wrap;fontSize=13;fontColor=#333333;align=center;spacing=0;fillColor=#ffffff;strokeWidth=1.5;strokeColor=none;" parent="1" vertex="1">
            <mxGeometry x="1109" y="225" width="22" height="21" as="geometry" />
          </mxCell>
        </UserObject>
        <UserObject label="1" lucidchartObjectId="vjrSe8KAuUE_" id="uS4SArBkVmVLtI8ByykN-31">
          <mxCell style="html=1;overflow=block;blockSpacing=1;whiteSpace=wrap;fontSize=13;fontColor=#333333;align=center;spacing=0;fillColor=#ffffff;strokeWidth=1.5;strokeColor=none;" parent="1" vertex="1">
            <mxGeometry x="899" y="590" width="22" height="21" as="geometry" />
          </mxCell>
        </UserObject>
        <UserObject label="1..*" lucidchartObjectId="yjrSmSvtmVET" id="uS4SArBkVmVLtI8ByykN-32">
          <mxCell style="html=1;overflow=block;blockSpacing=1;whiteSpace=wrap;fontSize=13;fontColor=#333333;align=center;spacing=0;fillColor=#ffffff;strokeWidth=1.5;strokeColor=none;" parent="1" vertex="1">
            <mxGeometry x="771" y="590" width="30" height="21" as="geometry" />
          </mxCell>
        </UserObject>
        <mxCell id="uS4SArBkVmVLtI8ByykN-33" value="Cargo" style="html=1;overflow=block;blockSpacing=1;swimlane;childLayout=stackLayout;horizontal=1;horizontalStack=0;resizeParent=1;resizeParentMax=0;resizeLast=0;collapsible=0;marginBottom=0;swimlaneFillColor=#ffffff;startSize=25;whiteSpace=wrap;fontSize=16.8;fontColor=#333333;fontStyle=1;align=center;spacing=0;strokeColor=#333333;strokeOpacity=100;fillOpacity=100;fillColor=#ffffff;strokeWidth=1.5;" parent="1" vertex="1">
          <mxGeometry x="921" y="862" width="255" height="162.25" as="geometry" />
        </mxCell>
        <mxCell id="uS4SArBkVmVLtI8ByykN-34" value="- nome: string " style="part=1;html=1;resizeHeight=0;strokeColor=none;fillColor=none;align=left;verticalAlign=middle;spacingLeft=4;spacingRight=4;overflow=hidden;rotatable=0;points=[[0,0.5],[1,0.5]];portConstraint=eastwest;swimlaneFillColor=#ffffff;strokeOpacity=100;fillOpacity=100;whiteSpace=wrap;fontSize=15.2;fontColor=#333333;" parent="uS4SArBkVmVLtI8ByykN-33" vertex="1">
          <mxGeometry y="25" width="255" height="59" as="geometry" />
        </mxCell>
        <mxCell id="uS4SArBkVmVLtI8ByykN-35" value="" style="line;strokeWidth=1;fillColor=none;align=left;verticalAlign=middle;spacingTop=-1;spacingLeft=3;spacingRight=3;rotatable=0;labelPosition=right;points=[];portConstraint=eastwest;" parent="uS4SArBkVmVLtI8ByykN-33" vertex="1">
          <mxGeometry y="84" width="255" height="8" as="geometry" />
        </mxCell>
        <mxCell id="uS4SArBkVmVLtI8ByykN-36" value="+ cadastraCargo( ): void&#xa;+ setCargos( ): void" style="part=1;html=1;resizeHeight=0;strokeColor=none;fillColor=none;align=left;verticalAlign=middle;spacingLeft=4;spacingRight=4;overflow=hidden;rotatable=0;points=[[0,0.5],[1,0.5]];portConstraint=eastwest;swimlaneFillColor=#ffffff;strokeOpacity=100;fillOpacity=100;whiteSpace=wrap;fontSize=15.2;fontColor=#333333;" parent="uS4SArBkVmVLtI8ByykN-33" vertex="1">
          <mxGeometry y="92" width="255" height="70.25" as="geometry" />
        </mxCell>
        <mxCell id="uS4SArBkVmVLtI8ByykN-37" value="Departamento" style="html=1;overflow=block;blockSpacing=1;swimlane;childLayout=stackLayout;horizontal=1;horizontalStack=0;resizeParent=1;resizeParentMax=0;resizeLast=0;collapsible=0;marginBottom=0;swimlaneFillColor=#ffffff;startSize=25;whiteSpace=wrap;fontSize=16.8;fontColor=#333333;fontStyle=1;align=center;spacing=0;strokeColor=#333333;strokeOpacity=100;fillOpacity=100;fillColor=#ffffff;strokeWidth=1.5;" parent="1" vertex="1">
          <mxGeometry x="921" y="1057" width="255" height="162.25" as="geometry" />
        </mxCell>
        <mxCell id="uS4SArBkVmVLtI8ByykN-38" value="- nome: string " style="part=1;html=1;resizeHeight=0;strokeColor=none;fillColor=none;align=left;verticalAlign=middle;spacingLeft=4;spacingRight=4;overflow=hidden;rotatable=0;points=[[0,0.5],[1,0.5]];portConstraint=eastwest;swimlaneFillColor=#ffffff;strokeOpacity=100;fillOpacity=100;whiteSpace=wrap;fontSize=15.2;fontColor=#333333;" parent="uS4SArBkVmVLtI8ByykN-37" vertex="1">
          <mxGeometry y="25" width="255" height="59" as="geometry" />
        </mxCell>
        <mxCell id="uS4SArBkVmVLtI8ByykN-39" value="" style="line;strokeWidth=1;fillColor=none;align=left;verticalAlign=middle;spacingTop=-1;spacingLeft=3;spacingRight=3;rotatable=0;labelPosition=right;points=[];portConstraint=eastwest;" parent="uS4SArBkVmVLtI8ByykN-37" vertex="1">
          <mxGeometry y="84" width="255" height="8" as="geometry" />
        </mxCell>
        <mxCell id="uS4SArBkVmVLtI8ByykN-40" value="+ cadastraDepartamento( ): void&#xa;+ setDepartamentos( ): void" style="part=1;html=1;resizeHeight=0;strokeColor=none;fillColor=none;align=left;verticalAlign=middle;spacingLeft=4;spacingRight=4;overflow=hidden;rotatable=0;points=[[0,0.5],[1,0.5]];portConstraint=eastwest;swimlaneFillColor=#ffffff;strokeOpacity=100;fillOpacity=100;whiteSpace=wrap;fontSize=15.2;fontColor=#333333;" parent="uS4SArBkVmVLtI8ByykN-37" vertex="1">
          <mxGeometry y="92" width="255" height="70.25" as="geometry" />
        </mxCell>
        <UserObject label="" lucidchartObjectId="OZuYnCCOkPfK" id="uS4SArBkVmVLtI8ByykN-41">
          <mxCell style="html=1;jettySize=18;whiteSpace=wrap;fontSize=13;strokeColor=#333333;strokeOpacity=100;strokeWidth=2.3;rounded=1;arcSize=24;edgeStyle=orthogonalEdgeStyle;startArrow=none;endArrow=none;exitX=0.5;exitY=-0.005;exitPerimeter=0;entryX=0.5;entryY=1.002;entryPerimeter=0;" parent="1" source="uS4SArBkVmVLtI8ByykN-33" target="uS4SArBkVmVLtI8ByykN-7" edge="1">
            <mxGeometry width="100" height="100" relative="1" as="geometry">
              <Array as="points" />
            </mxGeometry>
          </mxCell>
        </UserObject>
        <mxCell id="uS4SArBkVmVLtI8ByykN-42" value="1" style="text;html=1;resizable=0;labelBackgroundColor=default;align=center;verticalAlign=middle;fontSize=13;" parent="uS4SArBkVmVLtI8ByykN-41" vertex="1">
          <mxGeometry x="-1" relative="1" as="geometry">
            <mxPoint as="offset" />
          </mxGeometry>
        </mxCell>
        <mxCell id="uS4SArBkVmVLtI8ByykN-43" value="0..*" style="text;html=1;resizable=0;labelBackgroundColor=default;align=center;verticalAlign=middle;fontSize=13;" parent="uS4SArBkVmVLtI8ByykN-41" vertex="1">
          <mxGeometry x="0.7302914795324686" relative="1" as="geometry">
            <mxPoint as="offset" />
          </mxGeometry>
        </mxCell>
        <UserObject label="" lucidchartObjectId="6ZuYCkr.T5we" id="uS4SArBkVmVLtI8ByykN-44">
          <mxCell style="html=1;jettySize=18;whiteSpace=wrap;fontSize=13;strokeColor=#333333;strokeOpacity=100;strokeWidth=2.3;rounded=1;arcSize=24;edgeStyle=orthogonalEdgeStyle;startArrow=none;endArrow=none;exitX=0.5;exitY=-0.005;exitPerimeter=0;entryX=0.5;entryY=1.005;entryPerimeter=0;" parent="1" source="uS4SArBkVmVLtI8ByykN-37" target="uS4SArBkVmVLtI8ByykN-33" edge="1">
            <mxGeometry width="100" height="100" relative="1" as="geometry">
              <Array as="points" />
            </mxGeometry>
          </mxCell>
        </UserObject>
        <mxCell id="uS4SArBkVmVLtI8ByykN-45" value="1" style="text;html=1;resizable=0;labelBackgroundColor=default;align=center;verticalAlign=middle;fontSize=13;" parent="uS4SArBkVmVLtI8ByykN-44" vertex="1">
          <mxGeometry x="-1" relative="1" as="geometry">
            <mxPoint as="offset" />
          </mxGeometry>
        </mxCell>
        <mxCell id="uS4SArBkVmVLtI8ByykN-46" value="1..*" style="text;html=1;resizable=0;labelBackgroundColor=default;align=center;verticalAlign=middle;fontSize=13;" parent="uS4SArBkVmVLtI8ByykN-44" vertex="1">
          <mxGeometry x="0.5956521739130454" relative="1" as="geometry">
            <mxPoint as="offset" />
          </mxGeometry>
        </mxCell>
        <mxCell id="uS4SArBkVmVLtI8ByykN-47" value="Empresa" style="html=1;overflow=block;blockSpacing=1;swimlane;childLayout=stackLayout;horizontal=1;horizontalStack=0;resizeParent=1;resizeParentMax=0;resizeLast=0;collapsible=0;marginBottom=0;swimlaneFillColor=#ffffff;startSize=28;whiteSpace=wrap;fontSize=16.8;fontColor=#333333;fontStyle=1;align=left;spacing=0;strokeColor=#333333;strokeOpacity=100;strokeWidth=1.5;" parent="1" vertex="1">
          <mxGeometry x="1470" y="750" width="330" height="500.75" as="geometry" />
        </mxCell>
        <mxCell id="uS4SArBkVmVLtI8ByykN-48" value="- static InstancePtr: Empresa*&#xa;- pessoas: vector Pessoa[ ]&#xa;- funcionarios: vector Funcionario[ ]&#xa;- clientes: vector Cliente[ ]&#xa;- produtos: vector Produto[ ]&#xa;- categorias: vector Categoria[ ]&#xa;- lotes: vector Lote[ ]&#xa;- vendas: vector Venda[ ]&#xa;- estoques: vector Estoque[ ]&#xa;- ordens_producao: vector ordemProducao[ ]" style="part=1;html=1;resizeHeight=0;strokeColor=none;fillColor=none;align=left;verticalAlign=middle;spacingLeft=4;spacingRight=4;overflow=hidden;rotatable=0;points=[[0,0.5],[1,0.5]];portConstraint=eastwest;swimlaneFillColor=#ffffff;strokeOpacity=100;whiteSpace=wrap;fontSize=15.2;fontColor=#333333;" parent="uS4SArBkVmVLtI8ByykN-47" vertex="1">
          <mxGeometry y="28" width="330" height="230" as="geometry" />
        </mxCell>
        <mxCell id="uS4SArBkVmVLtI8ByykN-49" value="" style="line;strokeWidth=1;fillColor=none;align=left;verticalAlign=middle;spacingTop=-1;spacingLeft=3;spacingRight=3;rotatable=0;labelPosition=right;points=[];portConstraint=eastwest;" parent="uS4SArBkVmVLtI8ByykN-47" vertex="1">
          <mxGeometry y="258" width="330" height="8" as="geometry" />
        </mxCell>
        <mxCell id="uS4SArBkVmVLtI8ByykN-50" value="- Empresa( )&#xa;+ getch( ): char&#xa;+ static Instance( ): Empresa*&#xa;+ verificaPessoas( ): void&#xa;+ verificaFuncionarios( ): void&#xa;+ verificaClientes( ): void&#xa;+ verificaProdutos( ): void&#xa;+ verificaCategorias( ): void&#xa;+ verificaLotes( ): void&#xa;+ verificaVendas( ): void&#xa;+ verificaEstoques( ): void&#xa;+ verificaOrdensProducao( ): void" style="part=1;html=1;resizeHeight=0;strokeColor=none;fillColor=none;align=left;verticalAlign=middle;spacingLeft=4;spacingRight=4;overflow=hidden;rotatable=0;points=[[0,0.5],[1,0.5]];portConstraint=eastwest;swimlaneFillColor=#ffffff;strokeOpacity=100;whiteSpace=wrap;fontSize=15.2;fontColor=#333333;" parent="uS4SArBkVmVLtI8ByykN-47" vertex="1">
          <mxGeometry y="266" width="330" height="234.75" as="geometry" />
        </mxCell>
        <UserObject label="return InstacePtr" lucidchartObjectId="iWQYgKCpdV7d" id="uS4SArBkVmVLtI8ByykN-51">
          <mxCell style="html=1;overflow=block;blockSpacing=1;whiteSpace=wrap;shape=note;size=15;fontSize=13;fontColor=#333333;align=left;spacing=3.8;strokeColor=#333333;strokeOpacity=100;fillOpacity=100;fillColor=#ffffff;strokeWidth=1.1;" parent="1" vertex="1">
            <mxGeometry x="1581" y="1260" width="120" height="45" as="geometry" />
          </mxCell>
        </UserObject>
        <UserObject label="" lucidchartObjectId="jiRYTj0b217N" id="uS4SArBkVmVLtI8ByykN-52">
          <mxCell style="html=1;jettySize=18;whiteSpace=wrap;fontSize=13;strokeColor=#333333;strokeOpacity=100;strokeWidth=2.3;rounded=1;arcSize=24;edgeStyle=orthogonalEdgeStyle;startArrow=diamond;startFill=1;startSize=16;endArrow=none;exitX=1.003;exitY=0.745;exitPerimeter=0;entryX=-0.002;entryY=0.53;entryPerimeter=0;" parent="1" source="uS4SArBkVmVLtI8ByykN-33" target="uS4SArBkVmVLtI8ByykN-47" edge="1">
            <mxGeometry width="100" height="100" relative="1" as="geometry">
              <Array as="points" />
            </mxGeometry>
          </mxCell>
        </UserObject>
        <mxCell id="uS4SArBkVmVLtI8ByykN-53" value="0..*" style="text;html=1;resizable=0;labelBackgroundColor=default;align=center;verticalAlign=middle;fontSize=13;" parent="uS4SArBkVmVLtI8ByykN-52" vertex="1">
          <mxGeometry x="-0.8783068783068795" relative="1" as="geometry">
            <mxPoint as="offset" />
          </mxGeometry>
        </mxCell>
        <mxCell id="uS4SArBkVmVLtI8ByykN-54" value="0..*" style="text;html=1;resizable=0;labelBackgroundColor=default;align=center;verticalAlign=middle;fontSize=13;" parent="uS4SArBkVmVLtI8ByykN-52" vertex="1">
          <mxGeometry x="0.878306878306877" relative="1" as="geometry">
            <mxPoint as="offset" />
          </mxGeometry>
        </mxCell>
        <UserObject label="" lucidchartObjectId="niRYiOhJW0AO" id="uS4SArBkVmVLtI8ByykN-55">
          <mxCell style="html=1;jettySize=18;whiteSpace=wrap;fontSize=13;strokeColor=#333333;strokeOpacity=100;strokeWidth=2.3;rounded=1;arcSize=24;edgeStyle=orthogonalEdgeStyle;startArrow=diamond;startFill=1;startSize=16;endArrow=none;exitX=1.003;exitY=0.745;exitPerimeter=0;entryX=-0.002;entryY=0.93;entryPerimeter=0;" parent="1" source="uS4SArBkVmVLtI8ByykN-37" target="uS4SArBkVmVLtI8ByykN-47" edge="1">
            <mxGeometry width="100" height="100" relative="1" as="geometry">
              <Array as="points" />
            </mxGeometry>
          </mxCell>
        </UserObject>
        <mxCell id="uS4SArBkVmVLtI8ByykN-56" value="0..*" style="text;html=1;resizable=0;labelBackgroundColor=default;align=center;verticalAlign=middle;fontSize=13;" parent="uS4SArBkVmVLtI8ByykN-55" vertex="1">
          <mxGeometry x="-0.8783068783068795" relative="1" as="geometry">
            <mxPoint as="offset" />
          </mxGeometry>
        </mxCell>
        <mxCell id="uS4SArBkVmVLtI8ByykN-57" value="0..*" style="text;html=1;resizable=0;labelBackgroundColor=default;align=center;verticalAlign=middle;fontSize=13;" parent="uS4SArBkVmVLtI8ByykN-55" vertex="1">
          <mxGeometry x="0.878306878306877" relative="1" as="geometry">
            <mxPoint as="offset" />
          </mxGeometry>
        </mxCell>
        <UserObject label="" lucidchartObjectId="riRYEXtaZUwf" id="uS4SArBkVmVLtI8ByykN-58">
          <mxCell style="html=1;jettySize=18;whiteSpace=wrap;fontSize=13;strokeColor=#333333;strokeOpacity=100;strokeWidth=2.3;rounded=1;arcSize=24;edgeStyle=orthogonalEdgeStyle;startArrow=none;endArrow=diamond;endFill=1;endSize=16;exitX=0.245;exitY=-0.002;exitPerimeter=0;entryX=0.8;entryY=1.005;entryPerimeter=0;" parent="1" source="uS4SArBkVmVLtI8ByykN-47" target="uS4SArBkVmVLtI8ByykN-11" edge="1">
            <mxGeometry width="100" height="100" relative="1" as="geometry">
              <Array as="points" />
            </mxGeometry>
          </mxCell>
        </UserObject>
        <mxCell id="uS4SArBkVmVLtI8ByykN-59" value="0..*" style="text;html=1;resizable=0;labelBackgroundColor=default;align=center;verticalAlign=middle;fontSize=13;" parent="uS4SArBkVmVLtI8ByykN-58" vertex="1">
          <mxGeometry x="-1" relative="1" as="geometry">
            <mxPoint as="offset" />
          </mxGeometry>
        </mxCell>
        <mxCell id="uS4SArBkVmVLtI8ByykN-60" value="0..*" style="text;html=1;resizable=0;labelBackgroundColor=default;align=center;verticalAlign=middle;fontSize=13;" parent="uS4SArBkVmVLtI8ByykN-58" vertex="1">
          <mxGeometry x="0.636968289036324" relative="1" as="geometry">
            <mxPoint as="offset" />
          </mxGeometry>
        </mxCell>
        <UserObject label="" lucidchartObjectId="wiRYi6tVWGQk" id="uS4SArBkVmVLtI8ByykN-61">
          <mxCell style="html=1;jettySize=18;whiteSpace=wrap;fontSize=13;strokeColor=#333333;strokeOpacity=100;strokeWidth=2.3;rounded=1;arcSize=24;edgeStyle=orthogonalEdgeStyle;startArrow=none;endArrow=diamond;endFill=1;endSize=16;exitX=0.69;exitY=-0.002;exitPerimeter=0;entryX=1.003;entryY=0.5;entryPerimeter=0;" parent="1" source="uS4SArBkVmVLtI8ByykN-47" target="uS4SArBkVmVLtI8ByykN-3" edge="1">
            <mxGeometry width="100" height="100" relative="1" as="geometry">
              <Array as="points" />
            </mxGeometry>
          </mxCell>
        </UserObject>
        <mxCell id="uS4SArBkVmVLtI8ByykN-62" value="0..*" style="text;html=1;resizable=0;labelBackgroundColor=default;align=center;verticalAlign=middle;fontSize=13;" parent="uS4SArBkVmVLtI8ByykN-61" vertex="1">
          <mxGeometry x="-0.9657167385921422" relative="1" as="geometry">
            <mxPoint as="offset" />
          </mxGeometry>
        </mxCell>
        <mxCell id="uS4SArBkVmVLtI8ByykN-63" value="0..*" style="text;html=1;resizable=0;labelBackgroundColor=default;align=center;verticalAlign=middle;fontSize=13;" parent="uS4SArBkVmVLtI8ByykN-61" vertex="1">
          <mxGeometry x="0.9568357652841373" relative="1" as="geometry">
            <mxPoint as="offset" />
          </mxGeometry>
        </mxCell>
        <mxCell id="uS4SArBkVmVLtI8ByykN-86" style="edgeStyle=orthogonalEdgeStyle;rounded=0;orthogonalLoop=1;jettySize=auto;html=1;" parent="1" source="uS4SArBkVmVLtI8ByykN-65" target="uS4SArBkVmVLtI8ByykN-69" edge="1">
          <mxGeometry relative="1" as="geometry" />
        </mxCell>
        <UserObject label="" lucidchartObjectId=".kRY038Nx-IJ" id="uS4SArBkVmVLtI8ByykN-64">
          <mxCell style="html=1;jettySize=18;whiteSpace=wrap;fontSize=13;strokeColor=#333333;strokeOpacity=100;strokeWidth=1.1;rounded=1;arcSize=24;edgeStyle=orthogonalEdgeStyle;startArrow=none;endArrow=block;endFill=0;endSize=12;exitX=0.5;exitY=-0.012;exitPerimeter=0;entryX=0.545;entryY=1.002;entryPerimeter=0;" parent="1" source="uS4SArBkVmVLtI8ByykN-51" target="uS4SArBkVmVLtI8ByykN-47" edge="1">
            <mxGeometry width="100" height="100" relative="1" as="geometry">
              <Array as="points" />
            </mxGeometry>
          </mxCell>
        </UserObject>
        <mxCell id="uS4SArBkVmVLtI8ByykN-122" style="edgeStyle=none;rounded=0;orthogonalLoop=1;jettySize=auto;html=1;entryX=0.457;entryY=0;entryDx=0;entryDy=0;entryPerimeter=0;shadow=0;strokeColor=default;endArrow=classic;endFill=1;" parent="1" source="uS4SArBkVmVLtI8ByykN-65" target="uS4SArBkVmVLtI8ByykN-93" edge="1">
          <mxGeometry relative="1" as="geometry" />
        </mxCell>
        <mxCell id="uS4SArBkVmVLtI8ByykN-65" value="Log Abstrata" style="html=1;overflow=block;blockSpacing=1;swimlane;childLayout=stackLayout;horizontal=1;horizontalStack=0;resizeParent=1;resizeParentMax=0;resizeLast=0;collapsible=0;fontStyle=0;marginBottom=0;swimlaneFillColor=#ffffff;startSize=25;whiteSpace=wrap;fontSize=13;fontColor=#333333;align=center;spacing=0;strokeColor=#333333;strokeOpacity=100;fillOpacity=100;fillColor=#ffffff;strokeWidth=1.1;" parent="1" vertex="1">
          <mxGeometry x="301" y="1220" width="270" height="201.25" as="geometry" />
        </mxCell>
        <mxCell id="uS4SArBkVmVLtI8ByykN-66" value="- usuario: Usuario&lt;br&gt;- data: Data" style="part=1;html=1;resizeHeight=0;strokeColor=none;fillColor=none;verticalAlign=middle;spacingLeft=4;spacingRight=4;overflow=hidden;rotatable=0;points=[[0,0.5],[1,0.5]];portConstraint=eastwest;swimlaneFillColor=#ffffff;strokeOpacity=100;fillOpacity=100;whiteSpace=wrap;fontSize=13;fontColor=#333333;align=center;" parent="uS4SArBkVmVLtI8ByykN-65" vertex="1">
          <mxGeometry y="25" width="270" height="79" as="geometry" />
        </mxCell>
        <mxCell id="uS4SArBkVmVLtI8ByykN-67" value="" style="line;strokeWidth=1;fillColor=none;align=left;verticalAlign=middle;spacingTop=-1;spacingLeft=3;spacingRight=3;rotatable=0;labelPosition=right;points=[];portConstraint=eastwest;" parent="uS4SArBkVmVLtI8ByykN-65" vertex="1">
          <mxGeometry y="104" width="270" height="8" as="geometry" />
        </mxCell>
        <mxCell id="uS4SArBkVmVLtI8ByykN-68" value="&lt;div style=&quot;display: flex; justify-content: center; text-align: center; align-items: baseline; font-size: 0; line-height: 1.25;margin-top: -2px;&quot;&gt;&lt;span&gt;&lt;br&gt;&lt;/span&gt;&lt;/div&gt;" style="part=1;resizeHeight=0;strokeColor=none;fillColor=none;align=left;verticalAlign=middle;spacingLeft=4;spacingRight=4;rotatable=0;points=[[0,0.5],[1,0.5]];portConstraint=eastwest;swimlaneFillColor=#ffffff;strokeOpacity=100;fillOpacity=100;whiteSpace=wrap;overflow=block;blockSpacing=1;html=1;fontSize=13;" parent="uS4SArBkVmVLtI8ByykN-65" vertex="1">
          <mxGeometry y="112" width="270" height="89.25" as="geometry" />
        </mxCell>
        <mxCell id="uS4SArBkVmVLtI8ByykN-69" value="Log  de Leitura" style="html=1;overflow=block;blockSpacing=1;swimlane;childLayout=stackLayout;horizontal=1;horizontalStack=0;resizeParent=1;resizeParentMax=0;resizeLast=0;collapsible=0;fontStyle=0;marginBottom=0;swimlaneFillColor=#ffffff;startSize=25;whiteSpace=wrap;fontSize=13;fontColor=#333333;align=center;spacing=0;strokeColor=#333333;strokeOpacity=100;fillOpacity=100;fillColor=#ffffff;strokeWidth=1.1;" parent="1" vertex="1">
          <mxGeometry x="-60" y="1550" width="270" height="201.25" as="geometry" />
        </mxCell>
        <mxCell id="uS4SArBkVmVLtI8ByykN-70" value="&lt;div style=&quot;display: flex; justify-content: center; text-align: center; align-items: baseline; font-size: 0; line-height: 1.25;margin-top: -2px;&quot;&gt;&lt;span&gt;&lt;span style=&quot;font-size: 13px;&quot;&gt;- entidade_acessada: string&lt;/span&gt;&lt;br style=&quot;font-size: 13px;&quot;&gt;&lt;span style=&quot;font-size: 13px;&quot;&gt;- info_acessada: string&lt;/span&gt;&lt;span style=&quot;font-size: 13px;&quot;&gt;&lt;br&gt;&lt;/span&gt;&lt;/span&gt;&lt;/div&gt;" style="part=1;html=1;resizeHeight=0;strokeColor=none;fillColor=none;verticalAlign=middle;spacingLeft=4;spacingRight=4;overflow=hidden;rotatable=0;points=[[0,0.5],[1,0.5]];portConstraint=eastwest;swimlaneFillColor=#ffffff;strokeOpacity=100;fillOpacity=100;whiteSpace=wrap;fontSize=13;fontColor=#333333;align=center;" parent="uS4SArBkVmVLtI8ByykN-69" vertex="1">
          <mxGeometry y="25" width="270" height="79" as="geometry" />
        </mxCell>
        <mxCell id="uS4SArBkVmVLtI8ByykN-71" value="" style="line;strokeWidth=1;fillColor=none;align=left;verticalAlign=middle;spacingTop=-1;spacingLeft=3;spacingRight=3;rotatable=0;labelPosition=right;points=[];portConstraint=eastwest;" parent="uS4SArBkVmVLtI8ByykN-69" vertex="1">
          <mxGeometry y="104" width="270" height="8" as="geometry" />
        </mxCell>
        <mxCell id="uS4SArBkVmVLtI8ByykN-72" value="&lt;div style=&quot;display: flex; justify-content: center; text-align: center; align-items: baseline; font-size: 0; line-height: 1.25;margin-top: -2px;&quot;&gt;&lt;span&gt;&lt;br&gt;&lt;/span&gt;&lt;/div&gt;" style="part=1;resizeHeight=0;strokeColor=none;fillColor=none;align=left;verticalAlign=middle;spacingLeft=4;spacingRight=4;rotatable=0;points=[[0,0.5],[1,0.5]];portConstraint=eastwest;swimlaneFillColor=#ffffff;strokeOpacity=100;fillOpacity=100;whiteSpace=wrap;overflow=block;blockSpacing=1;html=1;fontSize=13;" parent="uS4SArBkVmVLtI8ByykN-69" vertex="1">
          <mxGeometry y="112" width="270" height="89.25" as="geometry" />
        </mxCell>
        <mxCell id="uS4SArBkVmVLtI8ByykN-93" value="Log de escrita" style="swimlane;fontStyle=1;align=center;verticalAlign=top;childLayout=stackLayout;horizontal=1;startSize=26;horizontalStack=0;resizeParent=1;resizeParentMax=0;resizeLast=0;collapsible=1;marginBottom=0;" parent="1" vertex="1">
          <mxGeometry x="340" y="1550" width="210" height="108" as="geometry">
            <mxRectangle x="550" y="1530" width="100" height="30" as="alternateBounds" />
          </mxGeometry>
        </mxCell>
        <mxCell id="uS4SArBkVmVLtI8ByykN-94" value="- entidade_alterada: string&#xa;- atributo_antes: string&#xa;- atributo_depois: string&#xa;" style="text;strokeColor=none;fillColor=none;align=left;verticalAlign=top;spacingLeft=4;spacingRight=4;overflow=hidden;rotatable=0;points=[[0,0.5],[1,0.5]];portConstraint=eastwest;" parent="uS4SArBkVmVLtI8ByykN-93" vertex="1">
          <mxGeometry y="26" width="210" height="74" as="geometry" />
        </mxCell>
        <mxCell id="uS4SArBkVmVLtI8ByykN-95" value="" style="line;strokeWidth=1;fillColor=none;align=left;verticalAlign=middle;spacingTop=-1;spacingLeft=3;spacingRight=3;rotatable=0;labelPosition=right;points=[];portConstraint=eastwest;strokeColor=inherit;" parent="uS4SArBkVmVLtI8ByykN-93" vertex="1">
          <mxGeometry y="100" width="210" height="8" as="geometry" />
        </mxCell>
        <mxCell id="uS4SArBkVmVLtI8ByykN-107" style="edgeStyle=orthogonalEdgeStyle;rounded=0;orthogonalLoop=1;jettySize=auto;html=1;entryX=0.5;entryY=1.013;entryDx=0;entryDy=0;entryPerimeter=0;endArrow=none;endFill=0;" parent="1" source="uS4SArBkVmVLtI8ByykN-101" target="uS4SArBkVmVLtI8ByykN-72" edge="1">
          <mxGeometry relative="1" as="geometry">
            <mxPoint x="210" y="1740" as="targetPoint" />
            <Array as="points">
              <mxPoint x="75" y="1855" />
            </Array>
          </mxGeometry>
        </mxCell>
        <mxCell id="uS4SArBkVmVLtI8ByykN-123" style="edgeStyle=none;rounded=0;orthogonalLoop=1;jettySize=auto;html=1;entryX=0.5;entryY=1;entryDx=0;entryDy=0;shadow=0;strokeColor=default;endArrow=none;endFill=0;" parent="1" source="uS4SArBkVmVLtI8ByykN-101" target="uS4SArBkVmVLtI8ByykN-93" edge="1">
          <mxGeometry relative="1" as="geometry" />
        </mxCell>
        <mxCell id="uS4SArBkVmVLtI8ByykN-101" value="Historico de Logs" style="swimlane;fontStyle=1;align=center;verticalAlign=top;childLayout=stackLayout;horizontal=1;startSize=26;horizontalStack=0;resizeParent=1;resizeParentMax=0;resizeLast=0;collapsible=1;marginBottom=0;" parent="1" vertex="1">
          <mxGeometry x="340" y="1760" width="210" height="190" as="geometry">
            <mxRectangle x="550" y="1530" width="100" height="30" as="alternateBounds" />
          </mxGeometry>
        </mxCell>
        <mxCell id="uS4SArBkVmVLtI8ByykN-102" value="- logs_leitura: vector&lt;Log de leitura&gt;&#xa;- logs_escrita: vector&lt;Log de escrita&gt;&#xa;- logs_tentativa_de_acesso: vector&lt;Log tentativa de acesso&gt;" style="text;strokeColor=none;fillColor=none;align=left;verticalAlign=top;spacingLeft=4;spacingRight=4;overflow=hidden;rotatable=0;points=[[0,0.5],[1,0.5]];portConstraint=eastwest;" parent="uS4SArBkVmVLtI8ByykN-101" vertex="1">
          <mxGeometry y="26" width="210" height="74" as="geometry" />
        </mxCell>
        <mxCell id="uS4SArBkVmVLtI8ByykN-103" value="" style="line;strokeWidth=1;fillColor=none;align=left;verticalAlign=middle;spacingTop=-1;spacingLeft=3;spacingRight=3;rotatable=0;labelPosition=right;points=[];portConstraint=eastwest;strokeColor=inherit;" parent="uS4SArBkVmVLtI8ByykN-101" vertex="1">
          <mxGeometry y="100" width="210" height="8" as="geometry" />
        </mxCell>
        <mxCell id="uS4SArBkVmVLtI8ByykN-104" value="+ adicionar_log_leitura()&#xa;+ adicionar_log_escrita()&#xa;+ adicionar_log_tentativa_de_acesso()" style="text;strokeColor=none;fillColor=none;align=left;verticalAlign=top;spacingLeft=4;spacingRight=4;overflow=hidden;rotatable=0;points=[[0,0.5],[1,0.5]];portConstraint=eastwest;" parent="uS4SArBkVmVLtI8ByykN-101" vertex="1">
          <mxGeometry y="108" width="210" height="82" as="geometry" />
        </mxCell>
        <mxCell id="uS4SArBkVmVLtI8ByykN-111" value="Log tentativa de acesso" style="swimlane;fontStyle=1;align=center;verticalAlign=top;childLayout=stackLayout;horizontal=1;startSize=26;horizontalStack=0;resizeParent=1;resizeParentMax=0;resizeLast=0;collapsible=1;marginBottom=0;" parent="1" vertex="1">
          <mxGeometry x="650" y="1550" width="210" height="108" as="geometry">
            <mxRectangle x="550" y="1530" width="100" height="30" as="alternateBounds" />
          </mxGeometry>
        </mxCell>
        <mxCell id="uS4SArBkVmVLtI8ByykN-112" value="- entidade_:acessada: string&#xa;- funcionalidade_acessada: string&#xa;" style="text;strokeColor=none;fillColor=none;align=left;verticalAlign=top;spacingLeft=4;spacingRight=4;overflow=hidden;rotatable=0;points=[[0,0.5],[1,0.5]];portConstraint=eastwest;" parent="uS4SArBkVmVLtI8ByykN-111" vertex="1">
          <mxGeometry y="26" width="210" height="74" as="geometry" />
        </mxCell>
        <mxCell id="uS4SArBkVmVLtI8ByykN-113" value="" style="line;strokeWidth=1;fillColor=none;align=left;verticalAlign=middle;spacingTop=-1;spacingLeft=3;spacingRight=3;rotatable=0;labelPosition=right;points=[];portConstraint=eastwest;strokeColor=inherit;" parent="uS4SArBkVmVLtI8ByykN-111" vertex="1">
          <mxGeometry y="100" width="210" height="8" as="geometry" />
        </mxCell>
        <mxCell id="uS4SArBkVmVLtI8ByykN-121" style="edgeStyle=orthogonalEdgeStyle;rounded=0;orthogonalLoop=1;jettySize=auto;html=1;exitX=1.011;exitY=0.924;exitDx=0;exitDy=0;exitPerimeter=0;" parent="1" source="uS4SArBkVmVLtI8ByykN-66" edge="1">
          <mxGeometry relative="1" as="geometry">
            <mxPoint x="966" y="1320.6999999999998" as="sourcePoint" />
            <mxPoint x="740" y="1550" as="targetPoint" />
          </mxGeometry>
        </mxCell>
        <mxCell id="uS4SArBkVmVLtI8ByykN-125" style="edgeStyle=orthogonalEdgeStyle;rounded=0;orthogonalLoop=1;jettySize=auto;html=1;entryX=0.99;entryY=1.027;entryDx=0;entryDy=0;entryPerimeter=0;exitX=0.5;exitY=1;exitDx=0;exitDy=0;endArrow=none;endFill=0;" parent="1" source="uS4SArBkVmVLtI8ByykN-111" target="uS4SArBkVmVLtI8ByykN-102" edge="1">
          <mxGeometry relative="1" as="geometry">
            <mxPoint x="836" y="1720.6999999999998" as="sourcePoint" />
            <mxPoint x="610" y="1950" as="targetPoint" />
          </mxGeometry>
        </mxCell>
      </root>
    </mxGraphModel>
  </diagram>
</mxfile>
